<?xml version="1.0" encoding="UTF-8" standalone="no"?>
<!-- Created with Inkscape (http://www.inkscape.org/) -->

<svg
   width="512"
   height="512"
   viewBox="0 0 135.46666 135.46667"
   version="1.1"
   id="svg1"
   inkscape:version="1.3 (0e150ed, 2023-07-21)"
   sodipodi:docname="bahn-alarm-logo.svg"
   inkscape:export-filename="bahn-alarm-logo-plain.svg"
   inkscape:export-xdpi="96"
   inkscape:export-ydpi="96"
   xmlns:inkscape="http://www.inkscape.org/namespaces/inkscape"
   xmlns:sodipodi="http://sodipodi.sourceforge.net/DTD/sodipodi-0.dtd"
   xmlns="http://www.w3.org/2000/svg"
   xmlns:svg="http://www.w3.org/2000/svg">
  <sodipodi:namedview
     id="namedview1"
     pagecolor="#505050"
     bordercolor="#eeeeee"
     borderopacity="1"
     inkscape:showpageshadow="0"
     inkscape:pageopacity="0"
     inkscape:pagecheckerboard="0"
     inkscape:deskcolor="#d1d1d1"
     inkscape:document-units="px"
     inkscape:clip-to-page="false"
     inkscape:zoom="0.85937986"
     inkscape:cx="333.96175"
     inkscape:cy="262.39852"
     inkscape:window-width="1512"
     inkscape:window-height="916"
     inkscape:window-x="0"
     inkscape:window-y="38"
     inkscape:window-maximized="1"
     inkscape:current-layer="layer1" />
  <defs
     id="defs1">
    <rect
       x="202.51806"
       y="31.790625"
       width="583.41212"
       height="766.74627"
       id="rect1" />
  </defs>
  <g
     inkscape:label="Layer 1"
     inkscape:groupmode="layer"
     id="layer1">
    <rect
       style="fill:#ff2a2a;stroke-width:167.801"
       id="rect2"
       width="135.46666"
       height="135.46666"
       x="-0.058251996"
       y="-0.058251861"
       ry="0" />
    <path
       d="m 590.11523,445.00952 q 0,32.51953 -12.30468,57.42187 -12.30469,24.90235 -33.10547,41.01563 -24.60938,19.33594 -54.19922,27.53906 -29.29688,8.20313 -74.70703,8.20313 H 261.11133 V 142.95874 h 129.19922 q 47.7539,0 71.48437,3.51562 23.73047,3.51563 45.41016,14.64844 24.02344,12.59766 34.86328,32.51953 10.83984,19.62891 10.83984,47.16797 0,31.05469 -15.82031,53.02734 -15.82031,21.67969 -42.1875,34.86328 v 2.34375 q 44.23828,9.08204 69.72656,38.96485 25.48828,29.58984 25.48828,75 z M 492.55664,248.42749 q 0,-15.82032 -5.27344,-26.66016 -5.27343,-10.83984 -16.99218,-17.57812 -13.76954,-7.91016 -33.39844,-9.66797 -19.62891,-2.05078 -48.63281,-2.05078 h -69.14063 v 125.97656 h 75 q 27.24609,0 43.35938,-2.63672 16.11328,-2.92969 29.88281,-11.71875 13.76953,-8.78906 19.33594,-22.55859 5.85937,-14.0625 5.85937,-33.10547 z m 37.20703,198.92578 q 0,-26.36719 -7.91015,-41.89453 -7.91016,-15.52735 -28.71094,-26.36719 -14.0625,-7.32422 -34.27735,-9.375 -19.92187,-2.34375 -48.63281,-2.34375 h -91.11328 v 162.30469 h 76.75781 q 38.08594,0 62.40235,-3.8086 24.3164,-4.10156 39.84375,-14.64843 16.40625,-11.42579 24.02343,-26.07422 7.61719,-14.64844 7.61719,-37.79297 z"
       id="text1"
       style="font-size:600px;font-family:'.Al Bayan PUA';-inkscape-font-specification:'.Al Bayan PUA, Normal';white-space:pre;fill:#ffffff;stroke-width:634.208"
       transform="matrix(0.22247298,0,0,0.26458333,-0.48342762,-27.800821)"
       aria-label="B" />
    <rect
       style="fill:#ffffff;stroke-width:106.051"
       id="rect3"
       width="22.782904"
       height="5.8496637"
       x="27.09318"
       y="16.009607"
       ry="3.175" />
    <rect
       style="fill:#ffffff;stroke-width:121.419"
       id="rect3-8"
       width="29.864075"
       height="5.8496637"
       x="20.012007"
       y="32.721729"
       ry="3.175" />
    <rect
       style="fill:#ffffff;stroke-width:135.049"
       id="rect3-8-4"
       width="36.945248"
       height="5.8496637"
       x="12.930835"
       y="49.433849"
       ry="3.175" />
    <rect
       style="fill:#ffffff;stroke-width:106.051"
       id="rect3-8-3"
       width="22.782904"
       height="5.8496637"
       x="27.09318"
       y="116.28233"
       ry="3.175" />
    <rect
       style="fill:#ffffff;stroke-width:121.419"
       id="rect3-8-2"
       width="29.864075"
       height="5.8496637"
       x="20.012007"
       y="99.570213"
       ry="3.175" />
    <rect
       style="fill:#ffffff;stroke-width:135.049"
       id="rect3-8-7"
       width="36.945248"
       height="5.8496637"
       x="12.930835"
       y="82.858093"
       ry="3.175" />
    <rect
       style="fill:#ffffff;stroke-width:146.39"
       id="rect3-8-1"
       width="43.410667"
       height="5.8496637"
       x="6.4654169"
       y="66.145973"
       ry="3.175"
       inkscape:export-filename="frontend/src/assets/logo-180x180.png"
       inkscape:export-xdpi="33.750004"
       inkscape:export-ydpi="33.750004" />
  </g>
</svg>
